<svg width="960" height="540" viewBox="0 0 960 540" fill="none" xmlns="http://www.w3.org/2000/svg">
<g id="waves" clip-path="url(#clip0_1_2)">
<g id="wave-05">
<path id="wave-05_2" d="M0 336L22.8 347.7C45.7 359.3 91.3 382.7 137 392.2C182.7 401.7 228.3 397.3 274 398.3C319.7 399.3 365.3 405.7 411.2 397.8C457 390 503 368 548.8 358.2C594.7 348.3 640.3 350.7 686 356C731.7 361.3 777.3 369.7 823 368.7C868.7 367.7 914.3 357.3 937.2 352.2L960 347V541H937.2C914.3 541 868.7 541 823 541C777.3 541 731.7 541 686 541C640.3 541 594.7 541 548.8 541C503 541 457 541 411.2 541C365.3 541 319.7 541 274 541C228.3 541 182.7 541 137 541C91.3 541 45.7 541 22.8 541H0V336Z" fill="#76759F"/>
</g>
<g id="wave-04">
<path id="wave-04_2" d="M0 374L22.8 382.8C45.7 391.7 91.3 409.3 137 413.8C182.7 418.3 228.3 409.7 274 406C319.7 402.3 365.3 403.7 411.2 406.7C457 409.7 503 414.3 548.8 417C594.7 419.7 640.3 420.3 686 419.2C731.7 418 777.3 415 823 413.8C868.7 412.7 914.3 413.3 937.2 413.7L960 414V541H937.2C914.3 541 868.7 541 823 541C777.3 541 731.7 541 686 541C640.3 541 594.7 541 548.8 541C503 541 457 541 411.2 541C365.3 541 319.7 541 274 541C228.3 541 182.7 541 137 541C91.3 541 45.7 541 22.8 541H0V374Z" fill="#605B7C"/>
</g>
<g id="wave-03">
<path id="wave-03_2" d="M0 405L22.8 412.7C45.7 420.3 91.3 435.7 137 437.8C182.7 440 228.3 429 274 432C319.7 435 365.3 452 411.2 457.3C457 462.7 503 456.3 548.8 452.2C594.7 448 640.3 446 686 448.8C731.7 451.7 777.3 459.3 823 460.3C868.7 461.3 914.3 455.7 937.2 452.8L960 450V541H937.2C914.3 541 868.7 541 823 541C777.3 541 731.7 541 686 541C640.3 541 594.7 541 548.8 541C503 541 457 541 411.2 541C365.3 541 319.7 541 274 541C228.3 541 182.7 541 137 541C91.3 541 45.7 541 22.8 541H0V405Z" fill="#49435B"/>
</g>
<g id="wave-02">
<path id="wave-02_2" d="M0 462L22.8 460.7C45.7 459.3 91.3 456.7 137 461C182.7 465.3 228.3 476.7 274 480.3C319.7 484 365.3 480 411.2 471.3C457 462.7 503 449.3 548.8 444.3C594.7 439.3 640.3 442.7 686 446.3C731.7 450 777.3 454 823 458.7C868.7 463.3 914.3 468.7 937.2 471.3L960 474V541H937.2C914.3 541 868.7 541 823 541C777.3 541 731.7 541 686 541C640.3 541 594.7 541 548.8 541C503 541 457 541 411.2 541C365.3 541 319.7 541 274 541C228.3 541 182.7 541 137 541C91.3 541 45.7 541 22.8 541H0V462Z" fill="#322C3D"/>
</g>
<g id="wave-01">
<path id="wave-01_2" d="M0 476L22.8 479C45.7 482 91.3 488 137 494C182.7 500 228.3 506 274 509C319.7 512 365.3 512 411.2 512C457 512 503 512 548.8 507C594.7 502 640.3 492 686 489.3C731.7 486.7 777.3 491.3 823 493.8C868.7 496.3 914.3 496.7 937.2 496.8L960 497V541H937.2C914.3 541 868.7 541 823 541C777.3 541 731.7 541 686 541C640.3 541 594.7 541 548.8 541C503 541 457 541 411.2 541C365.3 541 319.7 541 274 541C228.3 541 182.7 541 137 541C91.3 541 45.7 541 22.8 541H0V476Z" fill="#1C1721"/>
</g>
</g>
<defs>
<clipPath id="clip0_1_2">
<rect width="960" height="540" fill="white"/>
</clipPath>
</defs>
</svg>
